<?xml version="1.0" encoding="UTF-8"?>
<svg width="289.38" height="258.67" version="1" viewBox="0 0 217.03493 193.99999" xmlns="http://www.w3.org/2000/svg" xmlns:cc="http://creativecommons.org/ns#" xmlns:dc="http://purl.org/dc/elements/1.1/" xmlns:rdf="http://www.w3.org/1999/02/22-rdf-syntax-ns#">
 <metadata>
  <rdf:RDF>
   <cc:Work rdf:about="">
    <dc:format>image/svg+xml</dc:format>
    <dc:type rdf:resource="http://purl.org/dc/dcmitype/StillImage"/>
    <dc:title/>
   </cc:Work>
  </rdf:RDF>
 </metadata>
 <path d="m112.83 0.5c-0.4 0.4-3.3 1.1-6.5 1.5-9.3 1.3-19.7 4.2-25.5 7.1-1 0.5-2.7 0.9-3.8 0.9s-2 0.4-2 1c0 0.5-0.9 1-2 1s-2 0.4-2 1c0 0.5-0.9 1-2 1s-2 0.4-2 1c0 0.5-0.9 1-2 1s-2 0.3-2 0.8c0 0.4-1.5 1.4-3.2 2.2-1.8 0.7-4.2 2.2-5.2 3.2-1.1 1-2.6 1.8-3.3 1.8s-1.3 0.4-1.3 1c0 0.5-0.6 1-1.3 1s-1.9 0.9-2.7 2-2 2-2.6 2c-1.8 0-2.4 2.8-0.8 3.4 0.9 0.3 5.4 0.6 10 0.6s8.4 0.4 8.4 0.8c0 0.5 0.8 1.8 1.8 3 0.9 1.1 2.4 3 3.2 4.2 0.8 1.3 2.5 3.3 3.6 4.5 1.2 1.2 3 3.7 3.9 5.6 1 1.9 2.1 3.6 2.5 3.9 1.4 0.9 11.9 22 14.1 28.3 2 5.7 4.4 9.7 5.2 8.6 0.8-1 4.7-10 4.7-10.9 0-2.1 10.2-24 11.2-24 0.4 0 0.8-0.9 0.8-2s0.4-2 0.9-2 1.2-0.8 1.6-1.9c0.3-1 1.4-2.9 2.5-4.2s3-3.6 4.2-5.2c7.3-8.8 7.1-8.7 15.8-8.7 4.4 0 8 0.3 8 0.6s-0.6 1.2-1.2 1.9c-2.9 3.2-3.8 4.5-3.7 5.1 0 0.3-0.7 1.6-1.7 2.8-1.1 1.2-2 2.8-2.2 3.5-0.1 0.7-0.9 2-1.7 2.8s-1.5 1.8-1.5 2.3-0.6 1.5-1.3 2.2c-0.6 0.7-2.1 3-3.2 5-1.1 2.1-2.3 3.8-2.8 3.8-0.4 0-0.6 0.4-0.2 0.9 0.3 0.5-0.5 2-1.7 3.3-1.3 1.3-2.3 2.7-2.4 3.3 0 0.5-1.5 4.1-3.3 7.8s-3.1 7-2.9 7.3c0.7 0.6 4.2-2.8 4.6-4.5 0.1-0.7 0.9-2 1.7-2.8s1.5-1.8 1.5-2.3 0.6-1.5 1.3-2.2 2.3-3 3.6-5.1 3-4.4 3.8-5.2 1.2-1.5 0.8-1.5c-0.5 0 0.4-1.2 3.3-4.5 0.7-0.8 1.1-1.5 0.7-1.5s0-0.7 0.8-1.5 2.5-3.1 3.8-5.2 2.6-4 2.9-4.3 2.1-3 4-6 4-6.1 4.7-6.8 1.3-1.8 1.3-2.3 0.7-0.9 1.6-0.9 1.2 0.5 0.8 1.2c-0.6 1-0.4 1 0.7 0 2.3-2.1 3-1.3 1.2 1.5-1 1.6-2.1 3.1-2.6 3.4s-0.9 1-1 1.5-0.6 0.7-1.2 0.6c-0.5-0.2-0.7 0-0.3 0.3 0.4 0.4 0.1 2-0.7 3.5-1.5 2.8-9.8 15.7-11.5 17.7-0.5 0.7-1 1.6-1 2s-1.1 2.1-2.5 3.7-2.5 3.3-2.5 3.8c0 0.4-0.8 0.8-1.7 0.9-1 0-1.3 0.3-0.6 0.5 0.8 0.4 0.6 1.6-0.9 4.2l-2 3.7 2.7-3c4.2-4.6 6.8-7.8 9.5-11.6 1.3-1.8 2.8-3.9 3.2-4.4 3.2-3.9 4.5-5.6 5.8-7.6 0.8-1.2 3.4-4.4 5.8-7.1 2.3-2.7 4.2-5.3 4.2-5.8 0-0.6 1.4-2.3 3-3.8 1.7-1.6 3-3.4 3-4.1 0-1.3 4.6-1.5 5.4-0.2 0.3 0.4-0.2 1.8-1.2 2.9-0.9 1.1-2.3 2.9-3.1 4.1-0.8 1.1-1.8 1.8-2.3 1.5s-0.7-0.2-0.6 0.3c0.3 0.9-2 5.2-3.6 6.9-0.6 0.6-1.8 2.2-2.6 3.4-0.8 1.3-2.4 3.2-3.5 4.4s-3.3 4-4.9 6.3c-1.5 2.4-4 5.5-5.5 7.1-2.8 3.1-6.4 9.2-5.4 9.2 0.3 0 6.6-6.1 13.9-13.5s13.6-13.5 13.9-13.5c0.4 0 2.4-1.8 4.5-4s4.5-4 5.4-4c0.8 0 1.8-0.9 2.1-2 0.7-2.1 2.5-2.8 2.5-1 0 0.5 0.5 1 1.1 1s0.8-0.9 0.4-2c-0.5-1.4-0.2-2 1-2 0.9 0 1.3-0.5 1-1-0.3-0.6 0-1 0.7-1 0.8 0 2-0.9 2.8-2s2.3-2 3.3-2 1.5-0.5 1.2-1c-0.3-0.6 0.1-1 0.9-1 3.1 0 1.4-3.6-3.4-7-2.6-1.9-4.6-3.8-4.4-4.2 0.3-0.5-0.4-0.8-1.5-0.8-1.2 0-2.1-0.5-2.1-1 0-0.6-0.7-1-1.5-1s-1.5-0.5-1.5-1c0-0.6-0.7-1-1.5-1s-1.5-0.5-1.5-1c0-0.6-0.9-1-2-1s-2-0.5-2-1c0-0.6-1.1-1-2.5-1s-2.5-0.5-2.5-1c0-0.6-1.1-1-2.4-1-1.4 0-2.7-0.4-3-0.9s-2-1.1-3.8-1.4c-1.8-0.4-5.8-1.1-8.8-1.8-6.2-1.3-36.2-2.4-37.2-1.4zm45.2 0.6c0 0.5 0.5 0.7 1 0.4 0.6-0.3 1-0.8 1-1.1 0-0.2-0.4-0.4-1-0.4-0.5 0-1 0.5-1 1.1z"/>
 <path d="m21.034 53c-0.7 1.6-1.6 3-2.1 3-0.4 0-1 0.8-1.4 1.9-0.5 1.6-1.6 3.2-5.5 7.8-0.6 0.7-0.8 1.3-0.5 1.3s-0.5 2.1-1.8 4.7c-11.4 22.7-12.9 51.6-3.9 71.3 1.1 2.5 2.3 5.5 2.6 6.6 0.4 1.2 1.4 3.1 2.4 4.2 0.9 1.1 2.4 3 3.2 4.3 2.4 3.6 14.7 15.9 15.9 15.9 0.6 0 1.1 0.4 1.1 1 0 0.5 0.9 1 2.1 1 1.4 0 1.9 0.5 1.6 1.4-0.4 1 0 1.2 1.4 0.9 1-0.3 1.9 0 1.9 0.6s0.9 1.1 2 1.1 2 0.4 2 1c0 0.5 0.9 1 2 1s2 0.4 2 1c0 0.5 1.3 1 3 1 1.9 0 2.9 0.5 2.7 1.2-0.1 0.8 0.6 1.2 1.6 1s2.4 0.2 3.1 0.7c0.7 0.6 2.5 1.2 4 1.3 1.4 0.1 2.6 0.6 2.6 1s3.4 0.8 7.6 0.8c4.7 0 7.3 0.4 6.9 1s3.8 1 12 1 12.4-0.4 12-1c-0.3-0.6 0.3-1 1.4-1s2.3 0.5 2.6 1c0.8 1.3 4.5 1.3 4.5 0 0-0.6 1.4-1 3-1 1.7 0 3-0.5 3-1.1 0-0.7 1-0.9 2.6-0.6 1.8 0.3 2.4 0.1 2-0.8-0.5-1.3 1.8-1.5 3-0.2 0.4 0.4 1.2 0.7 1.8 0.7s0.4-0.5-0.4-1c-1.2-0.8-0.8-1 1.5-1.1 1.7-0.1 3.4-0.1 3.8 0 0.5 0.1 0.6-0.3 0.2-0.9s0.4-1 1.9-1c1.4 0 2.6-0.5 2.6-1 0-0.6 0.6-1 1.3-1 1.8 0 6.7-2.4 6.7-3.3 0-0.4 1.2-0.7 2.6-0.7 1.6 0 2.3-0.4 1.8-1.2-0.5-0.7 0-0.9 1.4-0.6 1.3 0.4 2.3 0 2.6-0.8s1.7-1.4 3.1-1.4c1.5 0 2.4-0.4 2-1-0.3-0.5 0.1-1 0.9-1 0.9 0 1.6-0.5 1.6-1 0-0.6 0.7-1 1.5-1s1.5-0.5 1.5-1c0-0.6 0.7-1 1.5-1s1.5-0.5 1.5-1c0-0.6 0.7-1 1.6-1 1.3 0 1.4-0.3 0.5-1.4-1-1.2-0.8-1.3 0.8-0.9 1.5 0.4 3-0.4 5-2.6 1.7-1.8 3.1-3.1 3.3-2.9 0.3 0.2 1.3-0.6 7-5.5 1.2-0.9 1.8-1.7 1.4-1.7s-0.1-0.7 0.8-1.5c0.8-0.8 2-1.5 2.7-1.5s1-0.3 0.6-0.6c-0.3-0.3 0.4-1.7 1.6-3 2.8-3 3.6-3.9 7.2-9.4 1.6-2.5 3.3-4.7 3.7-5 1-0.8 9.9-19.1 11-22.5 4.1-13.5 5.6-25.5 4.4-36.7l-0.7-6.5-20.2-0.6c-11.1-0.3-21.9-0.8-24-1.1-2.5-0.3-3.9-0.1-4.2 0.7-0.2 0.7-0.6 22.8-0.9 49.2-0.2 26.4-0.8 48.8-1.1 49.7-0.6 1.6-2.4 1.8-16.7 1.8-17.6 0-18.2-0.2-18.4-6-0.1-1.9-0.5-13.6-0.9-26s-0.8-25.7-1-29.5c-0.2-3.9-0.4-8.2-0.4-9.8-0.1-2.6-2.1-4-2.1-1.4 0 0.7-0.9 2.3-1.9 3.4-1.1 1.2-1.7 2.4-1.4 2.7 0.4 0.3 0.1 0.6-0.5 0.6-0.7 0-1.2 0.9-1.2 2s-0.4 2-0.8 2c-0.5 0-1.6 1.9-2.6 4.2-0.9 2.4-2.3 5.6-3.1 7.3-2.4 5.1-6.6 17.8-7 21.2-0.2 1.8-0.6 3.7-1 4.3s-4.9 1-11.2 1c-9.6 0-10.7-0.2-12.5-2.2-1-1.2-2.1-3.3-2.4-4.7-1.9-9.8-8.7-26.6-12-29.8-0.8-0.8-1.4-1.8-1.4-2.3 0-1.1-5.9-7.4-6.5-6.8-0.2 0.2-0.5 15-0.6 33 0 17.9-0.4 33-0.8 33.5-0.9 1.5-4.7 3.3-5.4 2.6-0.4-0.3-5.3-0.5-11.1-0.4s-12-0.1-13.8-0.4l-3.3-0.6-0.2-55.2c-0.2-30.4-0.3-55.5-0.3-56 0-2-2.9-0.3-4 2.3zm39.5 140c0.3 0.5 0.8 1 1.1 1 0.2 0 0.4-0.5 0.4-1 0-0.6-0.5-1-1.1-1-0.5 0-0.7 0.4-0.4 1zm65.5 0.1c0 0.5 0.5 0.7 1 0.4 0.6-0.3 1-0.8 1-1.1 0-0.2-0.4-0.4-1-0.4-0.5 0-1 0.5-1 1.1z"/>
</svg>
