<svg version="1" xmlns="http://www.w3.org/2000/svg" width="368" height="368" viewBox="0 0 276.000000 276.000000"><path d="M142.8 41.5c-.4.4-3.3 1.1-6.5 1.5-9.3 1.3-19.7 4.2-25.5 7.1-1 .5-2.7.9-3.8.9-1.1 0-2 .4-2 1 0 .5-.9 1-2 1s-2 .4-2 1c0 .5-.9 1-2 1s-2 .4-2 1c0 .5-.9 1-2 1s-2 .3-2 .8c0 .4-1.5 1.4-3.2 2.2-1.8.7-4.2 2.2-5.2 3.2-1.1 1-2.6 1.8-3.3 1.8-.7 0-1.3.4-1.3 1 0 .5-.6 1-1.3 1-.7 0-1.9.9-2.7 2-.8 1.1-2 2-2.6 2-1.8 0-2.4 2.8-.8 3.4.9.3 5.4.6 10 .6s8.4.4 8.4.8c0 .5.8 1.8 1.8 3 .9 1.1 2.4 3 3.2 4.2.8 1.3 2.5 3.3 3.6 4.5 1.2 1.2 3 3.7 3.9 5.6 1 1.9 2.1 3.6 2.5 3.9 1.4.9 11.9 22 14.1 28.3 2 5.7 4.4 9.7 5.2 8.6.8-1 4.7-10 4.7-10.9 0-2.1 10.2-24 11.2-24 .4 0 .8-.9.8-2s.4-2 .9-2 1.2-.8 1.6-1.9c.3-1 1.4-2.9 2.5-4.2 1.1-1.3 3-3.6 4.2-5.2 7.3-8.8 7.1-8.7 15.8-8.7 4.4 0 8 .3 8 .6s-.6 1.2-1.2 1.9c-2.9 3.2-3.8 4.5-3.7 5.1 0 .3-.7 1.6-1.7 2.8-1.1 1.2-2 2.8-2.2 3.5-.1.7-.9 2-1.7 2.8-.8.8-1.5 1.8-1.5 2.3 0 .5-.6 1.5-1.3 2.2-.6.7-2.1 3-3.2 5-1.1 2.1-2.3 3.8-2.8 3.8-.4 0-.6.4-.2.9.3.5-.5 2-1.7 3.3-1.3 1.3-2.3 2.7-2.4 3.3 0 .5-1.5 4.1-3.3 7.8-1.8 3.7-3.1 7-2.9 7.3.7.6 4.2-2.8 4.6-4.5.1-.7.9-2 1.7-2.8.8-.8 1.5-1.8 1.5-2.3 0-.5.6-1.5 1.3-2.2.7-.7 2.3-3 3.6-5.1 1.3-2.1 3-4.4 3.8-5.2.8-.8 1.2-1.5.8-1.5-.5 0 .4-1.2 3.3-4.5.7-.8 1.1-1.5.7-1.5-.4 0 0-.7.8-1.5s2.5-3.1 3.8-5.2c1.3-2.1 2.6-4 2.9-4.3.3-.3 2.1-3 4-6s4-6.1 4.7-6.8c.7-.7 1.3-1.8 1.3-2.3 0-.5.7-.9 1.6-.9.9 0 1.2.5.8 1.2-.6 1-.4 1 .7 0 2.3-2.1 3-1.3 1.2 1.5-1 1.6-2.1 3.1-2.6 3.4-.5.3-.9 1-1 1.5-.1.5-.6.7-1.2.6-.5-.2-.7 0-.3.3.4.4.1 2-.7 3.5-1.5 2.8-9.8 15.7-11.5 17.7-.5.7-1 1.6-1 2 0 .4-1.1 2.1-2.5 3.7s-2.5 3.3-2.5 3.8c0 .4-.8.8-1.7.9-1 0-1.3.3-.6.5.8.4.6 1.6-.9 4.2l-2 3.7 2.7-3c4.2-4.6 6.8-7.8 9.5-11.6 1.3-1.8 2.8-3.9 3.2-4.4 3.2-3.9 4.5-5.6 5.8-7.6.8-1.2 3.4-4.4 5.8-7.1 2.3-2.7 4.2-5.3 4.2-5.8 0-.6 1.4-2.3 3-3.8 1.7-1.6 3-3.4 3-4.1 0-1.3 4.6-1.5 5.4-.2.3.4-.2 1.8-1.2 2.9-.9 1.1-2.3 2.9-3.1 4.1-.8 1.1-1.8 1.8-2.3 1.5-.5-.3-.7-.2-.6.3.3.9-2 5.2-3.6 6.9-.6.6-1.8 2.2-2.6 3.4-.8 1.3-2.4 3.2-3.5 4.4-1.1 1.2-3.3 4-4.9 6.3-1.5 2.4-4 5.5-5.5 7.1-2.8 3.1-6.4 9.2-5.4 9.2.3 0 6.6-6.1 13.9-13.5 7.3-7.4 13.6-13.5 13.9-13.5.4 0 2.4-1.8 4.5-4s4.5-4 5.4-4c.8 0 1.8-.9 2.1-2 .7-2.1 2.5-2.8 2.5-1 0 .5.5 1 1.1 1 .6 0 .8-.9.4-2-.5-1.4-.2-2 1-2 .9 0 1.3-.5 1-1-.3-.6 0-1 .7-1 .8 0 2-.9 2.8-2 .8-1.1 2.3-2 3.3-2s1.5-.5 1.2-1c-.3-.6.1-1 .9-1 3.1 0 1.4-3.6-3.4-7-2.6-1.9-4.6-3.8-4.4-4.2.3-.5-.4-.8-1.5-.8-1.2 0-2.1-.5-2.1-1 0-.6-.7-1-1.5-1s-1.5-.5-1.5-1c0-.6-.7-1-1.5-1s-1.5-.5-1.5-1c0-.6-.9-1-2-1s-2-.5-2-1c0-.6-1.1-1-2.5-1s-2.5-.5-2.5-1c0-.6-1.1-1-2.4-1-1.4 0-2.7-.4-3-.9-.3-.5-2-1.1-3.8-1.4-1.8-.4-5.8-1.1-8.8-1.8-6.2-1.3-36.2-2.4-37.2-1.4zM188 42.1c0 .5.5.7 1 .4.6-.3 1-.8 1-1.1 0-.2-.4-.4-1-.4-.5 0-1 .5-1 1.1z"/><path d="M51 94c-.7 1.6-1.6 3-2.1 3-.4 0-1 .8-1.4 1.9-.5 1.6-1.6 3.2-5.5 7.8-.6.7-.8 1.3-.5 1.3.3 0-.5 2.1-1.8 4.7-11.4 22.7-12.9 51.6-3.9 71.3 1.1 2.5 2.3 5.5 2.6 6.6.4 1.2 1.4 3.1 2.4 4.2.9 1.1 2.4 3 3.2 4.3 2.4 3.6 14.7 15.9 15.9 15.9.6 0 1.1.4 1.1 1 0 .5.9 1 2.1 1 1.4 0 1.9.5 1.6 1.4-.4 1 0 1.2 1.4.9 1-.3 1.9 0 1.9.6s.9 1.1 2 1.1 2 .4 2 1c0 .5.9 1 2 1s2 .4 2 1c0 .5 1.3 1 3 1 1.9 0 2.9.5 2.7 1.2-.1.8.6 1.2 1.6 1 1-.2 2.4.2 3.1.7.7.6 2.5 1.2 4 1.3 1.4.1 2.6.6 2.6 1s3.4.8 7.6.8c4.7 0 7.3.4 6.9 1-.4.6 3.8 1 12 1s12.4-.4 12-1c-.3-.6.3-1 1.4-1 1.1 0 2.3.5 2.6 1 .8 1.3 4.5 1.3 4.5 0 0-.6 1.4-1 3-1 1.7 0 3-.5 3-1.1 0-.7 1-.9 2.6-.6 1.8.3 2.4.1 2-.8-.5-1.3 1.8-1.5 3-.2.4.4 1.2.7 1.8.7.6 0 .4-.5-.4-1-1.2-.8-.8-1 1.5-1.1 1.7-.1 3.4-.1 3.8 0 .5.1.6-.3.2-.9-.4-.6.4-1 1.9-1 1.4 0 2.6-.5 2.6-1 0-.6.6-1 1.3-1 1.8 0 6.7-2.4 6.7-3.3 0-.4 1.2-.7 2.6-.7 1.6 0 2.3-.4 1.8-1.2-.5-.7 0-.9 1.4-.6 1.3.4 2.3 0 2.6-.8.3-.8 1.7-1.4 3.1-1.4 1.5 0 2.4-.4 2-1-.3-.5.1-1 .9-1 .9 0 1.6-.5 1.6-1 0-.6.7-1 1.5-1s1.5-.5 1.5-1c0-.6.7-1 1.5-1s1.5-.5 1.5-1c0-.6.7-1 1.6-1 1.3 0 1.4-.3.5-1.4-1-1.2-.8-1.3.8-.9 1.5.4 3-.4 5-2.6 1.7-1.8 3.1-3.1 3.3-2.9.3.2 1.3-.6 7-5.5 1.2-.9 1.8-1.7 1.4-1.7-.4 0-.1-.7.8-1.5.8-.8 2-1.5 2.7-1.5.7 0 1-.3.6-.6-.3-.3.4-1.7 1.6-3 2.8-3 3.6-3.9 7.2-9.4 1.6-2.5 3.3-4.7 3.7-5 1-.8 9.9-19.1 11-22.5 4.1-13.5 5.6-25.5 4.4-36.7l-.7-6.5-20.2-.6c-11.1-.3-21.9-.8-24-1.1-2.5-.3-3.9-.1-4.2.7-.2.7-.6 22.8-.9 49.2-.2 26.4-.8 48.8-1.1 49.7-.6 1.6-2.4 1.8-16.7 1.8-17.6 0-18.2-.2-18.4-6-.1-1.9-.5-13.6-.9-26s-.8-25.7-1-29.5c-.2-3.9-.4-8.2-.4-9.8-.1-2.6-2.1-4-2.1-1.4 0 .7-.9 2.3-1.9 3.4-1.1 1.2-1.7 2.4-1.4 2.7.4.3.1.6-.5.6-.7 0-1.2.9-1.2 2s-.4 2-.8 2c-.5 0-1.6 1.9-2.6 4.2-.9 2.4-2.3 5.6-3.1 7.3-2.4 5.1-6.6 17.8-7 21.2-.2 1.8-.6 3.7-1 4.3-.4.6-4.9 1-11.2 1-9.6 0-10.7-.2-12.5-2.2-1-1.2-2.1-3.3-2.4-4.7-1.9-9.8-8.7-26.6-12-29.8-.8-.8-1.4-1.8-1.4-2.3 0-1.1-5.9-7.4-6.5-6.8-.2.2-.5 15-.6 33 0 17.9-.4 33-.8 33.5-.9 1.5-4.7 3.3-5.4 2.6-.4-.3-5.3-.5-11.1-.4-5.8.1-12-.1-13.8-.4l-3.3-.6-.2-55.2c-.2-30.4-.3-55.5-.3-56 0-2-2.9-.3-4 2.3zM90.5 234c.3.5.8 1 1.1 1 .2 0 .4-.5.4-1 0-.6-.5-1-1.1-1-.5 0-.7.4-.4 1zM156 234.1c0 .5.5.7 1 .4.6-.3 1-.8 1-1.1 0-.2-.4-.4-1-.4-.5 0-1 .5-1 1.1z"/></svg>